<svg xmlns="http://www.w3.org/2000/svg" xmlns:xlink="http://www.w3.org/1999/xlink" width="154" height="60" viewBox="0 0 154 60">
  <defs>
    <linearGradient id="linear-gradient" x1="-16.781" y1="7.525" x2="-16.781" y2="7.508" gradientUnits="objectBoundingBox">
      <stop offset="0"/>
      <stop offset="1"/>
    </linearGradient>
    <linearGradient id="linear-gradient-2" x1="-0.108" y1="0.266" x2="1.51" gradientUnits="objectBoundingBox">
      <stop offset="0" stop-color="#626262"/>
      <stop offset="1" stop-color="#141414"/>
    </linearGradient>
    <linearGradient id="linear-gradient-3" x1="-13.998" y1="74.709" x2="-13.998" y2="74.497" gradientUnits="objectBoundingBox">
      <stop offset="0" stop-color="#000215"/>
      <stop offset="1" stop-color="#191b2e"/>
    </linearGradient>
    <linearGradient id="linear-gradient-4" x1="0.089" y1="0.237" x2="0.661" gradientUnits="objectBoundingBox">
      <stop offset="0" stop-color="#4f4f4f"/>
      <stop offset="1" stop-color="#20287d" stop-opacity="0"/>
    </linearGradient>
    <clipPath id="clip-Logo-透明">
      <rect width="154" height="60"/>
    </clipPath>
  </defs>
  <g id="Logo-透明" clip-path="url(#clip-Logo-透明)">
    <g id="组_419" transform="translate(-53.975 -13.099)">
      <g id="组_404" transform="translate(-255.501 -356.334)">
        <path id="路径_3567" data-name="路径 3567" d="M3.965-24.883V-26.8h26.8v1.914H19.277v2.051H32.266v6.426H28.984v-4.512H19.277v4.238h.273c2.917,2.917,7.474,5.492,13.672,6.859V-8.2Q22.832-9.844,17.5-14.082,11.758-9.57,1.777-8.2V-9.82a27.513,27.513,0,0,0,12.168-5.629H8.93v-1.367h5.016v1.367a7.993,7.993,0,0,1,.82-.684,2.933,2.933,0,0,1,.684-.547h.41v-4.238H6.152v4.512H2.871v-6.426H15.859v-2.051ZM24.883,3.691A72.445,72.445,0,0,0,9.023-.684V-2.574c2.931.357,5.514.793,8.2,1.344a34,34,0,0,0,5.879-4.375H6.973V-7.93h9.3a17.127,17.127,0,0,0-1.23-3.281h3.145a17.508,17.508,0,0,1,1.5,3.281h8.34v2.324a35.463,35.463,0,0,1-7.656,5.2A25.385,25.385,0,0,1,24.883.82ZM8.93-18.047v-1.5h5.016v1.5Zm12.262,0v-1.5h5.016v1.5Zm0,2.6v-1.367h5.016v1.367Z" transform="translate(375.501 409.334)"/>
        <path id="路径_3568" data-name="路径 3568" d="M11.289-19.523v-2.391h7.969v-5.18h3.719v5.18h8.234v2.391H22.977q.133,8.9,8.9,14.742v2.391q-7.7-3.586-10.758-9.961Q18.062-5.711,10.227-2.391V-4.781q9.031-5.313,9.031-14.742ZM1.992,3.055V1.063Q5.313-.4,5.18-3.586V-14.875H1.727v-1.9l7.039-.359V-4.516Q8.9,0,13.547,0H32.406V2.391H13.414Q8.9,2.391,7.3-.133A8.809,8.809,0,0,1,1.992,3.055ZM5.109-20.055a25,25,0,0,0-1.768-6.072H5.717c1.328,2.214,2.359,3.859,2.713,6.072Z" transform="translate(413.301 409.475)"/>
        <path id="路径_3261" d="M16.2,56.4c-3.1,9.1.8-13.9.8-13.9s3.9-19.9,8.9-35.3,3.5-1,3.5-1S19.3,47.3,16.2,56.4Z" transform="translate(321.876 370.125)" fill="url(#linear-gradient)"/>
        <path id="路径_2996" d="M4.7,27.2a20.891,20.891,0,0,1,8.8-2.6,33.987,33.987,0,0,1,7.8.3s5.7.7,5.5,4.4-11.1,3.2-11.1,3.2S2.6,31.6-1.3,28a4.626,4.626,0,0,1-.8-6.5c.2-.2.3-.4.5-.6,0,0,3-3.2,12.5-4.8s22.4,0,23.7.2A64.612,64.612,0,0,0,11,17.6C-2.1,20.7-1.3,24-1.2,24.4s1.1,3.7,11.6,4.8,12.6.3,12.6.3,1.3-.3,1.2-1.1c0-.3-.2-.7-1.6-1.3a24.861,24.861,0,0,0-9.3-1.5,47.756,47.756,0,0,0-5.3.6C6.4,26.6,4.7,27.2,4.7,27.2Z" transform="translate(330.172 384.781)" fill="none"/>
        <path id="路径_2995" d="M5.4,23.1s9.7-7.9,19.7-6.2a3.658,3.658,0,0,1,2.8,2.3c.1,1.4-.8,3.3-3.2,4.6a36.571,36.571,0,0,1-8.5,2.7S3.4,28.8-1.8,25c-1.6-1.2-2.9-3-2.7-4.5.3-1.5,4.148-3.3,4.148-3.3a5.2,5.2,0,0,0-2.39,2.624C-3.142,21.327-1.7,22.5,1,22.9c3.1.5,9.2-.1,10.9,0,4.5-.7,8.2-1.6,8.2-1.6S25.8,20,22.2,19s-9.8,1.4-9.8,1.4c-1.2.3-2.4.7-3.6,1.1C7.2,22.2,5.4,23.1,5.4,23.1Z" transform="translate(330.172 384.781)" fill="url(#linear-gradient-2)"/>
        <path id="路径_3001" d="M13.6,37.8A55.356,55.356,0,0,1,8,36.7a26.582,26.582,0,0,1-5.3-2.1A3.162,3.162,0,0,1,1,30.7s-3,3.6,5.6,7.1a20.476,20.476,0,0,0,4.2.7C13,38.5,13.6,37.8,13.6,37.8Z" transform="translate(330.172 384.781)" fill="none"/>
        <path id="路径_2999" d="M19.6,30s-8.4,3.2-13.5,3.5a3.5,3.5,0,0,1-3.7-2.8s0,5.1,9.6,3.8a19.657,19.657,0,0,0,4-1.6A19.9,19.9,0,0,0,19.6,30Z" transform="translate(330.172 384.781)" fill="url(#linear-gradient-3)"/>
        <path id="路径_3260" d="M38.369-.055,36.2,4.7,33.7,9.8S12.6,11.3,1.4,16.4a26.293,26.293,0,0,0-4.614,2.528A6.442,6.442,0,0,0-4.5,20.638S-5.2,10.3,3.8,6.2,26.7,0,38.369-.055Z" transform="translate(330.172 384.781)" fill="url(#linear-gradient-4)"/>
        <path id="路径_3082" d="M352.877,393.008l3.236-.356L354.8,395.6l-3.1.4Z" fill="#3c3c3c"/>
        <path id="路径_3068" d="M359.5,390l3.9-.456-1.375,3.315-3.963.686Z" fill="#fcba3d"/>
        <path id="路径_3083" d="M354.9,386.2l3.884-.47-1.267,3.493-3.817.477Z" fill="#3f50fa"/>
        <path id="路径_3069" d="M362,382.7l4.7-.3-1.4,4.4-4.7.3Z" fill="#646464"/>
      </g>
    </g>
  </g>
</svg>
